<?xml version="1.0" encoding="utf-8"?>
<!-- Generator: Adobe Illustrator 27.3.1, SVG Export Plug-In . SVG Version: 6.00 Build 0)  -->
<svg version="1.1" id="Layer_1" xmlns="http://www.w3.org/2000/svg" xmlns:xlink="http://www.w3.org/1999/xlink" x="0px" y="0px"
	 viewBox="0 0 1080 1080" style="enable-background:new 0 0 1080 1080;" xml:space="preserve">
<style type="text/css">
	.st0{fill:none;}
	.st1{fill:#D2D9E3;}
	.st2{fill:#D49B62;}
	.st3{fill-rule:evenodd;clip-rule:evenodd;fill:#FFFFFF;}
	.st4{fill:#010202;}
	.st5{fill:#D1D7E0;}
</style>
<g id="Group_10" transform="translate(95.5 -612)">
	<g id="Icon_-_Profile" transform="translate(311 44)">
		<rect id="Icon_-_Profile_Background_Mask_" x="-1015.66" y="1177.23" class="st0" width="153.67" height="153.67"/>
	</g>
	<g id="Icon_-_Message" transform="translate(255 44)">
		<rect id="Icon_-_Message_Background_" x="-1228.59" y="1177.23" class="st0" width="153.67" height="153.67"/>
		<path id="Vector" class="st1" d="M-1179,1306.89c-16.57,0.19-30.17-13.07-30.37-29.64v-46.37c0.19-16.56,13.77-29.83,30.33-29.64
			c0.02,0,0.03,0,0.05,0h59.3c8.02-0.02,15.74,3.1,21.49,8.69c5.67,5.5,8.88,13.05,8.89,20.95v46.37
			c-0.21,16.57-13.81,29.84-30.38,29.64H-1179z"/>
	</g>
	<g id="Map" transform="translate(159)">
		<g transform="matrix(1, 0, 0, 1, -255, -88)">
			<path id="Bg-4" class="st2" d="M-1258.47,1152.27c30.01-30,78.65-30,108.66,0l25.8,25.8c30,30.01,30,78.65,0,108.66l-25.8,25.8
				c-30.01,30-78.65,30-108.66,0l-25.8-25.8c-30-30.01-30-78.65,0-108.66L-1258.47,1152.27z"/>
		</g>
		<g id="Icon_-_Map" transform="translate(16 16)">
			<rect id="Icon_-_Map_Background_Mask_" x="-1532.76" y="1070.77" class="st0" width="115.25" height="115.25"/>
		</g>
		<path id="Donation" class="st3" d="M-1473.78,1178.01c-4.31-0.08-8.4,1.88-11.05,5.28l-6.24,7.68c-1.22,1.11-1.92,2.68-1.92,4.32
			c-0.09,3.62,2.78,6.63,6.4,6.72c0.11,0,0.21,0,0.32,0h73.47c3.62,0.09,6.63-2.78,6.72-6.4c0-0.11,0-0.21,0-0.32
			c-0.04-1.55-0.54-3.06-1.44-4.32l-6.24-7.68c-3.09-3.36-7.44-5.27-12.01-5.28H-1473.78z M-1464.18,1191.46
			c-0.03-2.09,1.64-3.81,3.74-3.84c0.04,0,0.07,0,0.11,0h21.61c2.12,0,3.84,1.72,3.84,3.84c0,2.12-1.72,3.84-3.84,3.84h-21.61
			C-1462.74,1194.82-1464.18,1193.38-1464.18,1191.46z M-1499.72,1105.98h39.38c14.2,0.8,27.79,6,38.9,14.89
			c1.44,0.96,2.88,2.4,5.28,4.32l2.88,2.4c1.14,1.89,1.8,4.04,1.92,6.24c-0.13,4.45-3.71,8.03-8.16,8.16h-0.48
			c-1.71,0.04-3.39-0.47-4.8-1.44l-5.76-4.32c-2.01-1.77-4.28-3.23-6.72-4.32l-4.32-1.44c-2.85-0.5-5.75-0.66-8.64-0.48h-19.69
			c-1.94-0.18-3.66,1.25-3.84,3.2c-0.02,0.21-0.02,0.43,0,0.64c-0.03,2.09,1.64,3.81,3.74,3.84c0.04,0,0.07,0,0.11,0h12.01
			c4.77,0,8.64,3.87,8.64,8.64s-3.87,8.64-8.64,8.64l0,0h-11.05c-13.5-0.02-26.64-4.4-37.46-12.49l-1.92-2.4l-0.48-0.48
			c-2.12-1.59-3.36-4.08-3.36-6.72v-17.77c0.15-1.32,0.47-2.61,0.96-3.84c0.92-1.88,2.44-3.4,4.32-4.32
			c1.21-0.54,2.51-0.87,3.84-0.96H-1499.72z M-1457.94,1161.2c8.72-0.08,15.77-7.13,15.85-15.85c0.02-3.96-1.53-7.76-4.32-10.56
			c9.1,1.95,15.66,9.9,15.85,19.21c-0.03,10.6-8.61,19.18-19.21,19.21c-7.84,0.09-14.92-4.7-17.77-12.01H-1457.94z"/>
	</g>
	<path id="home_FILL1_wght400_GRAD0_opsz48" class="st4" d="M13.52,1626.39V979.92L444.5,656.66l430.98,323.26v646.47H552.13
		v-377.12H336.78v377.12L13.52,1626.39z"/>
	<path id="explore_FILL1_wght400_GRAD0_opsz48" class="st5" d="M-1727.58,1314.92l41.78-20.6l20.6-41.78l-41.78,20.6
		L-1727.58,1314.92z M-1696.32,1289.42c-3.13-0.06-5.61-2.64-5.56-5.76c0.06-3.13,2.64-5.61,5.76-5.56
		c3.13,0.06,5.61,2.64,5.56,5.76c-0.03,1.47-0.62,2.86-1.66,3.9C-1693.3,1288.86-1694.78,1289.46-1696.32,1289.42z
		 M-1696.32,1341.29c-7.68,0.04-15.28-1.5-22.33-4.54c-13.85-5.87-24.87-16.89-30.76-30.73c-6.05-14.32-6.05-30.48,0-44.8
		c2.91-6.84,7.12-13.05,12.39-18.3c5.29-5.23,11.52-9.42,18.37-12.34c14.32-6.05,30.48-6.05,44.8,0
		c13.8,5.83,24.78,16.81,30.61,30.61c6.05,14.32,6.05,30.48,0,44.8c-2.91,6.84-7.09,13.08-12.32,18.37
		c-5.24,5.27-11.46,9.48-18.3,12.39C-1680.94,1339.79-1688.6,1341.34-1696.32,1341.29z"/>
	<path id="Line" class="st4" d="M-1609.88,1485.35h624.29c6.63,0,12.01,5.38,12.01,12.01l0,0c0,6.63-5.38,12.01-12.01,12.01h-624.29
		c-6.63,0-12.01-5.38-12.01-12.01l0,0C-1621.89,1490.73-1616.51,1485.35-1609.88,1485.35z"/>
</g>
<path id="person_FILL1_wght400_GRAD0_opsz48" class="st1" d="M-531.2,673.02c-14.7,0.64-27.14-10.76-27.79-25.46
	c-0.03-0.78-0.03-1.55,0-2.33c-0.64-14.7,10.76-27.14,25.46-27.79c0.78-0.03,1.55-0.03,2.33,0c14.7-0.64,27.14,10.76,27.79,25.46
	c0.03,0.78,0.03,1.55,0,2.33c0.64,14.7-10.76,27.14-25.46,27.79C-529.65,673.06-530.43,673.06-531.2,673.02z M-590.48,732.47v-17.39
	c-0.12-4.28,1.11-8.5,3.52-12.04c2.3-3.29,5.43-5.92,9.08-7.6c7.67-3.49,15.63-6.28,23.8-8.34c7.49-1.84,15.17-2.77,22.88-2.78
	c7.69,0.01,15.34,0.97,22.79,2.88c8.11,2.11,16.04,4.87,23.71,8.25c3.72,1.64,6.93,4.27,9.26,7.6c2.41,3.54,3.64,7.76,3.52,12.04
	v17.38H-590.48z"/>
<text transform="matrix(1 0 0 1 -1915.5669 780.5104)" class="st4" style="font-family:'Roboto-Medium'; font-size:33.6156px;">Home</text>
<text transform="matrix(1 0 0 1 -1656.2466 780.5104)" class="st4" style="font-family:'Roboto-Medium'; font-size:33.6156px;">Explore</text>
<text transform="matrix(1 0 0 1 -835.0669 780.5104)" class="st4" style="font-family:'Roboto-Medium'; font-size:33.6156px;">Feed</text>
<text transform="matrix(1 0 0 1 -577.9458 780.5104)" class="st4" style="font-family:'Roboto-Medium'; font-size:33.6156px;">Profile</text>
</svg>
