<?xml version="1.0" encoding="utf-8"?>
<!-- Generator: Adobe Illustrator 27.3.1, SVG Export Plug-In . SVG Version: 6.00 Build 0)  -->
<svg version="1.1" id="Layer_1" xmlns="http://www.w3.org/2000/svg" xmlns:xlink="http://www.w3.org/1999/xlink" x="0px" y="0px"
	 viewBox="0 0 1080 1080" style="enable-background:new 0 0 1080 1080;" xml:space="preserve">
<style type="text/css">
	.st0{fill:#010202;}
</style>
<path id="person_FILL1_wght400_GRAD0_opsz48" class="st0" d="M540,533.56c-114.63,5.01-211.62-83.86-216.63-198.49
	c-0.26-6.04-0.26-12.1,0-18.14c-5.01-114.63,83.86-211.62,198.49-216.63c6.04-0.26,12.1-0.26,18.14,0
	c114.63-5.01,211.62,83.86,216.63,198.49c0.26,6.04,0.26,12.1,0,18.14c5.01,114.63-83.86,211.62-198.49,216.63
	C552.1,533.82,546.04,533.82,540,533.56z M77.83,997V861.39c-0.94-33.39,8.66-66.24,27.44-93.86
	c17.91-25.68,42.33-46.13,70.76-59.23c59.77-27.24,121.89-48.99,185.59-65c58.37-14.35,118.26-21.62,178.37-21.68
	c59.92,0.05,119.61,7.6,177.66,22.46c63.22,16.49,125.03,37.98,184.84,64.29c29.02,12.8,53.99,33.28,72.22,59.23
	c18.79,27.63,28.39,60.47,27.44,93.86V997H77.83z"/>
</svg>
